{
.appVersion = "1141";
DisplayStrings = (
"clioaca\012munkey.io\012vacant\012cheese sandwich co.\012CHEESE \012SANDWICOH\012the quick brown fox\012jumps over the lazy dog.\012THE QUICK BROWN FOX\012JUMPS OVER THE LAZY DOG\012my cleanlier yepao\012ohrecognisably\012breaker beach\012nope\012biome.us\012sanctuary\012donuts"
);
date = "2018-06-29 06:14:28 +0000";
familyName = Chonk;
fontMaster = (
{
ascender = 800;
capHeight = 700;
descender = -200;
id = "DEFA3CF4-798D-4CAE-A768-8CFF46B77001";
userData = {
GSCornerRadius = 116;
GSOffsetHorizontal = -10;
GSOffsetVertical = -10;
};
xHeight = 500;
}
);
glyphs = (
{
glyphname = A;
lastChange = "2018-07-02 20:45:06 +0000";
layers = (
{
layerId = "DEFA3CF4-798D-4CAE-A768-8CFF46B77001";
paths = (
{
closed = 1;
nodes = (
"541 467 OFFCURVE",
"464 580 OFFCURVE",
"275 580 CURVE SMOOTH",
"87 580 OFFCURVE",
"10 467 OFFCURVE",
"10 283 CURVE SMOOTH",
"10 137 LINE SMOOTH",
"10 19 OFFCURVE",
"63 0 OFFCURVE",
"147 0 CURVE SMOOTH",
"237 0 OFFCURVE",
"265 19 OFFCURVE",
"265 137 CURVE SMOOTH",
"265 283 LINE",
"285 283 LINE",
"285 137 LINE SMOOTH",
"285 19 OFFCURVE",
"320 0 OFFCURVE",
"404 0 CURVE SMOOTH",
"487 0 OFFCURVE",
"541 19 OFFCURVE",
"541 137 CURVE SMOOTH",
"541 283 LINE SMOOTH"
);
}
);
width = 551;
}
);
leftMetricsKey = H;
rightMetricsKey = H;
unicode = 0041;
},
{
glyphname = B;
lastChange = "2018-07-02 05:12:45 +0000";
layers = (
{
layerId = "DEFA3CF4-798D-4CAE-A768-8CFF46B77001";
paths = (
{
closed = 1;
nodes = (
"10 26 OFFCURVE",
"64 0 OFFCURVE",
"188 0 CURVE",
"425 0 LINE",
"501 0 OFFCURVE",
"577 36 OFFCURVE",
"577 144 CURVE SMOOTH",
"577 225 OFFCURVE",
"536 280 OFFCURVE",
"469 280 CURVE",
"469 300 LINE",
"536 300 OFFCURVE",
"577 355 OFFCURVE",
"577 436 CURVE SMOOTH",
"577 544 OFFCURVE",
"501 580 OFFCURVE",
"425 580 CURVE",
"188 580 LINE",
"64 580 OFFCURVE",
"10 547 OFFCURVE",
"10 412 CURVE SMOOTH",
"10 168 LINE SMOOTH"
);
},
{
closed = 1;
nodes = (
"196 221 LINE",
"246 221 OFFCURVE",
"342 221 OFFCURVE",
"392 221 CURVE",
"392 201 LINE",
"342 201 OFFCURVE",
"246 201 OFFCURVE",
"196 201 CURVE"
);
},
{
closed = 1;
nodes = (
"196 379 LINE",
"246 379 OFFCURVE",
"342 379 OFFCURVE",
"392 379 CURVE",
"392 359 LINE",
"342 359 OFFCURVE",
"246 359 OFFCURVE",
"196 359 CURVE"
);
}
);
width = 582;
}
);
leftMetricsKey = H;
rightMetricsKey = O;
unicode = 0042;
},
{
glyphname = C;
lastChange = "2018-07-02 05:05:48 +0000";
layers = (
{
layerId = "DEFA3CF4-798D-4CAE-A768-8CFF46B77001";
paths = (
{
closed = 1;
nodes = (
"411 0 LINE SMOOTH",
"531 0 OFFCURVE",
"550 54 OFFCURVE",
"550 139 CURVE SMOOTH",
"550 224 OFFCURVE",
"531 280 OFFCURVE",
"411 280 CURVE SMOOTH",
"295 280 LINE",
"295 300 LINE",
"411 300 LINE SMOOTH",
"531 300 OFFCURVE",
"550 349 OFFCURVE",
"550 441 CURVE SMOOTH",
"550 526 OFFCURVE",
"531 580 OFFCURVE",
"411 580 CURVE SMOOTH",
"295 580 LINE SMOOTH",
"119 580 OFFCURVE",
"5 502 OFFCURVE",
"5 290 CURVE SMOOTH",
"5 78 OFFCURVE",
"119 0 OFFCURVE",
"295 0 CURVE SMOOTH"
);
}
);
width = 555;
}
);
leftMetricsKey = O;
rightMetricsKey = O;
unicode = 0043;
},
{
glyphname = D;
lastChange = "2018-07-02 20:45:27 +0000";
layers = (
{
layerId = "DEFA3CF4-798D-4CAE-A768-8CFF46B77001";
paths = (
{
closed = 1;
nodes = (
"441 0 OFFCURVE",
"555 78 OFFCURVE",
"555 290 CURVE SMOOTH",
"555 502 OFFCURVE",
"441 580 OFFCURVE",
"265 580 CURVE SMOOTH",
"149 580 LINE SMOOTH",
"29 580 OFFCURVE",
"10 526 OFFCURVE",
"10 441 CURVE SMOOTH",
"10 349 OFFCURVE",
"10 224 OFFCURVE",
"10 139 CURVE SMOOTH",
"10 54 OFFCURVE",
"29 0 OFFCURVE",
"149 0 CURVE SMOOTH",
"265 0 LINE SMOOTH"
);
},
{
closed = 1;
nodes = (
"175 301 LINE",
"225 301 OFFCURVE",
"321 301 OFFCURVE",
"371 301 CURVE",
"371 281 LINE",
"321 281 OFFCURVE",
"225 281 OFFCURVE",
"175 281 CURVE"
);
}
);
width = 560;
}
);
leftMetricsKey = H;
rightMetricsKey = O;
unicode = 0044;
},
{
glyphname = E;
lastChange = "2018-06-30 04:59:40 +0000";
layers = (
{
layerId = "DEFA3CF4-798D-4CAE-A768-8CFF46B77001";
paths = (
{
closed = 1;
nodes = (
"10 16 OFFCURVE",
"60 0 OFFCURVE",
"138 0 CURVE SMOOTH",
"216 0 OFFCURVE",
"266 16 OFFCURVE",
"266 118 CURVE SMOOTH",
"266 462 LINE SMOOTH",
"266 557 OFFCURVE",
"216 580 OFFCURVE",
"138 580 CURVE SMOOTH",
"60 580 OFFCURVE",
"10 557 OFFCURVE",
"10 462 CURVE SMOOTH",
"10 118 LINE SMOOTH"
);
},
{
closed = 1;
nodes = (
"26 196 OFFCURVE",
"10 158 OFFCURVE",
"10 98 CURVE SMOOTH",
"10 38 OFFCURVE",
"26 0 OFFCURVE",
"128 0 CURVE SMOOTH",
"372 0 LINE SMOOTH",
"467 0 OFFCURVE",
"490 38 OFFCURVE",
"490 98 CURVE SMOOTH",
"490 158 OFFCURVE",
"467 196 OFFCURVE",
"372 196 CURVE SMOOTH",
"128 196 LINE SMOOTH"
);
},
{
closed = 1;
nodes = (
"26 580 OFFCURVE",
"10 542 OFFCURVE",
"10 482 CURVE SMOOTH",
"10 422 OFFCURVE",
"26 384 OFFCURVE",
"128 384 CURVE SMOOTH",
"372 384 LINE SMOOTH",
"467 384 OFFCURVE",
"490 422 OFFCURVE",
"490 482 CURVE SMOOTH",
"490 542 OFFCURVE",
"467 580 OFFCURVE",
"372 580 CURVE SMOOTH",
"128 580 LINE SMOOTH"
);
},
{
closed = 1;
nodes = (
"26 364 OFFCURVE",
"10 335 OFFCURVE",
"10 290 CURVE SMOOTH",
"10 245 OFFCURVE",
"26 216 OFFCURVE",
"128 216 CURVE SMOOTH",
"332 216 LINE SMOOTH",
"427 216 OFFCURVE",
"450 245 OFFCURVE",
"450 290 CURVE SMOOTH",
"450 335 OFFCURVE",
"427 364 OFFCURVE",
"332 364 CURVE SMOOTH",
"128 364 LINE SMOOTH"
);
}
);
width = 500;
}
);
leftMetricsKey = H;
rightMetricsKey = H;
unicode = 0045;
},
{
glyphname = F;
lastChange = "2018-07-02 05:13:01 +0000";
layers = (
{
layerId = "DEFA3CF4-798D-4CAE-A768-8CFF46B77001";
paths = (
{
closed = 1;
nodes = (
"10 396 OFFCURVE",
"10 176 OFFCURVE",
"10 118 CURVE",
"11 23 OFFCURVE",
"61 0 OFFCURVE",
"139 0 CURVE SMOOTH",
"237 0 OFFCURVE",
"287 23 OFFCURVE",
"287 118 CURVE SMOOTH",
"287 128 LINE",
"340 128 LINE SMOOTH",
"442 128 OFFCURVE",
"458 154 OFFCURVE",
"458 236 CURVE SMOOTH",
"458 304 OFFCURVE",
"442 344 OFFCURVE",
"340 344 CURVE SMOOTH",
"287 344 LINE",
"287 352 LINE",
"287 364 LINE",
"350 364 LINE SMOOTH",
"452 364 OFFCURVE",
"468 410 OFFCURVE",
"468 472 CURVE SMOOTH",
"468 534 OFFCURVE",
"452 580 OFFCURVE",
"350 580 CURVE SMOOTH",
"172 580 LINE SMOOTH",
"53 580 OFFCURVE",
"10 514 OFFCURVE",
"10 414 CURVE"
);
}
);
width = 473;
}
);
leftMetricsKey = H;
rightMetricsKey = O;
unicode = 0046;
},
{
glyphname = H;
lastChange = "2018-06-30 05:00:08 +0000";
layers = (
{
layerId = "DEFA3CF4-798D-4CAE-A768-8CFF46B77001";
paths = (
{
closed = 1;
nodes = (
"10 16 OFFCURVE",
"64 0 OFFCURVE",
"148 0 CURVE SMOOTH",
"232 0 OFFCURVE",
"286 16 OFFCURVE",
"286 118 CURVE SMOOTH",
"286 462 LINE SMOOTH",
"286 557 OFFCURVE",
"232 580 OFFCURVE",
"148 580 CURVE SMOOTH",
"64 580 OFFCURVE",
"10 557 OFFCURVE",
"10 462 CURVE SMOOTH",
"10 118 LINE SMOOTH"
);
},
{
closed = 1;
nodes = (
"306 16 OFFCURVE",
"360 0 OFFCURVE",
"444 0 CURVE SMOOTH",
"528 0 OFFCURVE",
"582 16 OFFCURVE",
"582 118 CURVE SMOOTH",
"582 462 LINE SMOOTH",
"582 557 OFFCURVE",
"528 580 OFFCURVE",
"444 580 CURVE SMOOTH",
"360 580 OFFCURVE",
"306 557 OFFCURVE",
"306 462 CURVE SMOOTH",
"306 118 LINE SMOOTH"
);
},
{
closed = 1;
nodes = (
"236 231 LINE",
"354 231 LINE",
"354 349 LINE",
"236 349 LINE"
);
}
);
width = 592;
}
);
unicode = 0048;
},
{
glyphname = I;
lastChange = "2018-07-02 04:51:09 +0000";
layers = (
{
layerId = "DEFA3CF4-798D-4CAE-A768-8CFF46B77001";
paths = (
{
closed = 1;
nodes = (
"10 16 OFFCURVE",
"64 0 OFFCURVE",
"148 0 CURVE SMOOTH",
"232 0 OFFCURVE",
"286 16 OFFCURVE",
"286 118 CURVE SMOOTH",
"286 462 LINE SMOOTH",
"286 557 OFFCURVE",
"232 580 OFFCURVE",
"148 580 CURVE SMOOTH",
"64 580 OFFCURVE",
"10 557 OFFCURVE",
"10 462 CURVE SMOOTH",
"10 118 LINE SMOOTH"
);
}
);
width = 296;
}
);
leftMetricsKey = H;
rightMetricsKey = H;
unicode = 0049;
},
{
glyphname = J;
lastChange = "2018-07-02 05:15:03 +0000";
layers = (
{
layerId = "DEFA3CF4-798D-4CAE-A768-8CFF46B77001";
paths = (
{
closed = 1;
nodes = (
"403 453 LINE",
"402 555 OFFCURVE",
"348 580 OFFCURVE",
"264 580 CURVE SMOOTH",
"181 580 OFFCURVE",
"127 555 OFFCURVE",
"127 453 CURVE SMOOTH",
"127 232 LINE",
"17 232 OFFCURVE",
"0 193 OFFCURVE",
"0 116 CURVE SMOOTH",
"0 39 OFFCURVE",
"17 0 OFFCURVE",
"127 0 CURVE SMOOTH",
"143 0 LINE SMOOTH",
"303 0 OFFCURVE",
"403 71 OFFCURVE",
"403 264 CURVE SMOOTH"
);
}
);
width = 413;
}
);
rightMetricsKey = H;
unicode = 004A;
},
{
glyphname = K;
lastChange = "2018-07-02 04:54:00 +0000";
layers = (
{
layerId = "DEFA3CF4-798D-4CAE-A768-8CFF46B77001";
paths = (
{
closed = 1;
nodes = (
"286 118 LINE SMOOTH",
"286 45 OFFCURVE",
"331 0 OFFCURVE",
"424 0 CURVE SMOOTH",
"537 0 OFFCURVE",
"562 45 OFFCURVE",
"562 128 CURVE SMOOTH",
"562 238 OFFCURVE",
"547 284 OFFCURVE",
"444 284 CURVE",
"444 304 LINE",
"547 304 OFFCURVE",
"562 390 OFFCURVE",
"562 462 CURVE SMOOTH",
"562 535 OFFCURVE",
"537 580 OFFCURVE",
"424 580 CURVE SMOOTH",
"331 580 OFFCURVE",
"286 535 OFFCURVE",
"286 462 CURVE SMOOTH",
"286 373 LINE",
"266 373 LINE",
"266 462 LINE SMOOTH",
"266 535 OFFCURVE",
"251 580 OFFCURVE",
"128 580 CURVE SMOOTH",
"25 580 OFFCURVE",
"10 535 OFFCURVE",
"10 462 CURVE SMOOTH",
"10 118 LINE SMOOTH",
"10 45 OFFCURVE",
"25 0 OFFCURVE",
"128 0 CURVE",
"244 0 OFFCURVE",
"266 45 OFFCURVE",
"266 118 CURVE SMOOTH",
"266 196 OFFCURVE",
"266 205 OFFCURVE",
"266 215 CURVE",
"286 215 LINE"
);
}
);
width = 567;
}
);
rightMetricsKey = O;
unicode = 004B;
},
{
glyphname = M;
lastChange = "2018-07-02 05:15:45 +0000";
layers = (
{
layerId = "DEFA3CF4-798D-4CAE-A768-8CFF46B77001";
paths = (
{
closed = 1;
nodes = (
"10 108 LINE SMOOTH",
"10 6 OFFCURVE",
"56 -10 OFFCURVE",
"128 -10 CURVE SMOOTH",
"206 -10 OFFCURVE",
"246 6 OFFCURVE",
"246 108 CURVE SMOOTH",
"246 304 LINE",
"266 304 LINE",
"266 108 LINE SMOOTH",
"266 6 OFFCURVE",
"312 -10 OFFCURVE",
"384 -10 CURVE SMOOTH",
"462 -10 OFFCURVE",
"502 6 OFFCURVE",
"502 108 CURVE SMOOTH",
"502 304 LINE",
"522 304 LINE",
"522 108 LINE SMOOTH",
"522 6 OFFCURVE",
"568 -10 OFFCURVE",
"640 -10 CURVE SMOOTH",
"712 -10 OFFCURVE",
"758 6 OFFCURVE",
"758 108 CURVE SMOOTH",
"758 434 LINE SMOOTH",
"758 533 OFFCURVE",
"712 580 OFFCURVE",
"572 580 CURVE SMOOTH",
"418 580 OFFCURVE",
"394 526 OFFCURVE",
"394 414 CURVE",
"394 402 LINE",
"374 402 LINE",
"374 414 LINE",
"374 526 OFFCURVE",
"350 580 OFFCURVE",
"196 580 CURVE SMOOTH",
"56 580 OFFCURVE",
"10 533 OFFCURVE",
"10 434 CURVE SMOOTH"
);
}
);
width = 768;
}
);
leftMetricsKey = H;
rightMetricsKey = H;
unicode = 004D;
},
{
glyphname = N;
lastChange = "2018-07-02 04:58:48 +0000";
layers = (
{
layerId = "DEFA3CF4-798D-4CAE-A768-8CFF46B77001";
paths = (
{
closed = 1;
nodes = (
"10 16 OFFCURVE",
"64 0 OFFCURVE",
"148 0 CURVE SMOOTH",
"212 0 OFFCURVE",
"270 16 OFFCURVE",
"261 118 CURVE SMOOTH",
"246 289 LINE",
"266 289 LINE",
"285 35 OFFCURVE",
"291 0 OFFCURVE",
"444 0 CURVE SMOOTH",
"528 0 OFFCURVE",
"582 16 OFFCURVE",
"582 118 CURVE SMOOTH",
"582 462 LINE SMOOTH",
"582 557 OFFCURVE",
"528 580 OFFCURVE",
"444 580 CURVE SMOOTH",
"380 580 OFFCURVE",
"320 557 OFFCURVE",
"331 462 CURVE SMOOTH",
"350 291 LINE",
"330 291 LINE",
"308 540 OFFCURVE",
"296 580 OFFCURVE",
"148 580 CURVE SMOOTH",
"64 580 OFFCURVE",
"10 557 OFFCURVE",
"10 462 CURVE SMOOTH",
"10 118 LINE SMOOTH"
);
}
);
width = 592;
}
);
leftMetricsKey = H;
rightMetricsKey = H;
unicode = 004E;
},
{
glyphname = O;
lastChange = "2018-07-02 04:48:05 +0000";
layers = (
{
layerId = "DEFA3CF4-798D-4CAE-A768-8CFF46B77001";
paths = (
{
closed = 1;
nodes = (
"123 592 OFFCURVE",
"5 510 OFFCURVE",
"5 291 CURVE SMOOTH",
"5 72 OFFCURVE",
"123 -10 OFFCURVE",
"306 -10 CURVE SMOOTH",
"489 -10 OFFCURVE",
"607 72 OFFCURVE",
"607 291 CURVE SMOOTH",
"607 510 OFFCURVE",
"489 592 OFFCURVE",
"306 592 CURVE SMOOTH"
);
},
{
closed = 1;
nodes = (
"208 301 LINE",
"258 301 OFFCURVE",
"354 301 OFFCURVE",
"404 301 CURVE",
"404 281 LINE",
"354 281 OFFCURVE",
"258 281 OFFCURVE",
"208 281 CURVE"
);
}
);
width = 612;
}
);
unicode = 004F;
},
{
glyphname = P;
lastChange = "2018-07-02 05:16:15 +0000";
layers = (
{
layerId = "DEFA3CF4-798D-4CAE-A768-8CFF46B77001";
paths = (
{
closed = 1;
nodes = (
"10 338 LINE SMOOTH",
"10 337 OFFCURVE",
"10 335 OFFCURVE",
"10 333 CURVE SMOOTH",
"10 109 LINE SMOOTH",
"10 22 OFFCURVE",
"59 0 OFFCURVE",
"136 0 CURVE SMOOTH",
"213 0 OFFCURVE",
"262 22 OFFCURVE",
"262 109 CURVE",
"415 109 OFFCURVE",
"513 173 OFFCURVE",
"513 344 CURVE SMOOTH",
"513 515 OFFCURVE",
"415 580 OFFCURVE",
"262 580 CURVE SMOOTH",
"108 580 OFFCURVE",
"10 515 OFFCURVE",
"10 344 CURVE SMOOTH"
);
},
{
closed = 1;
nodes = (
"218 344 OFFCURVE",
"314 344 OFFCURVE",
"364 344 CURVE",
"364 324 LINE",
"314 324 OFFCURVE",
"218 324 OFFCURVE",
"168 324 CURVE",
"168 344 LINE"
);
}
);
width = 518;
}
);
leftMetricsKey = H;
rightMetricsKey = O;
unicode = 0050;
},
{
glyphname = Q;
lastChange = "2018-07-02 04:59:45 +0000";
layers = (
{
layerId = "DEFA3CF4-798D-4CAE-A768-8CFF46B77001";
paths = (
{
closed = 1;
nodes = (
"208 301 LINE",
"258 301 OFFCURVE",
"354 301 OFFCURVE",
"404 301 CURVE",
"404 281 LINE",
"354 281 OFFCURVE",
"258 281 OFFCURVE",
"208 281 CURVE"
);
},
{
closed = 1;
nodes = (
"5 129 OFFCURVE",
"70 42 OFFCURVE",
"188 17 CURVE",
"168 -47 OFFCURVE",
"192 -80 OFFCURVE",
"306 -80 CURVE SMOOTH",
"417 -80 OFFCURVE",
"444 -51 OFFCURVE",
"424 17 CURVE",
"542 42 OFFCURVE",
"607 129 OFFCURVE",
"607 291 CURVE SMOOTH",
"607 510 OFFCURVE",
"489 592 OFFCURVE",
"306 592 CURVE SMOOTH",
"123 592 OFFCURVE",
"5 510 OFFCURVE",
"5 291 CURVE SMOOTH"
);
}
);
width = 612;
}
);
unicode = 0051;
},
{
glyphname = R;
lastChange = "2018-07-02 05:10:31 +0000";
layers = (
{
layerId = "DEFA3CF4-798D-4CAE-A768-8CFF46B77001";
paths = (
{
closed = 1;
nodes = (
"286 118 LINE SMOOTH",
"286 45 OFFCURVE",
"331 0 OFFCURVE",
"424 0 CURVE SMOOTH",
"537 0 OFFCURVE",
"562 45 OFFCURVE",
"562 128 CURVE SMOOTH",
"562 198 OFFCURVE",
"542 244 OFFCURVE",
"439 244 CURVE",
"439 264 LINE",
"524 264 OFFCURVE",
"562 326 OFFCURVE",
"562 418 CURVE SMOOTH",
"562 504 OFFCURVE",
"498 580 OFFCURVE",
"379 580 CURVE",
"178 580 LINE",
"25 580 OFFCURVE",
"10 515 OFFCURVE",
"10 392 CURVE SMOOTH",
"10 118 LINE SMOOTH",
"10 45 OFFCURVE",
"25 0 OFFCURVE",
"128 0 CURVE",
"244 0 OFFCURVE",
"266 45 OFFCURVE",
"266 118 CURVE",
"266 168 LINE",
"286 168 LINE"
);
},
{
closed = 1;
nodes = (
"191 341 LINE",
"241 341 OFFCURVE",
"337 341 OFFCURVE",
"387 341 CURVE",
"387 321 LINE",
"337 321 OFFCURVE",
"241 321 OFFCURVE",
"191 321 CURVE"
);
}
);
width = 567;
}
);
leftMetricsKey = H;
rightMetricsKey = O;
unicode = 0052;
},
{
glyphname = S;
lastChange = "2018-07-02 05:17:44 +0000";
layers = (
{
layerId = "DEFA3CF4-798D-4CAE-A768-8CFF46B77001";
paths = (
{
closed = 1;
nodes = (
"317 -1 LINE",
"446 -1 OFFCURVE",
"503 68 OFFCURVE",
"503 171 CURVE SMOOTH",
"503 251 OFFCURVE",
"444 335 OFFCURVE",
"317 335 CURVE SMOOTH",
"293 335 LINE",
"293 355 LINE",
"366 355 LINE SMOOTH",
"493 355 OFFCURVE",
"504 395 OFFCURVE",
"504 462 CURVE SMOOTH",
"504 520 OFFCURVE",
"493 579 OFFCURVE",
"366 579 CURVE",
"192 579 LINE",
"65 579 OFFCURVE",
"6 510 OFFCURVE",
"6 407 CURVE SMOOTH",
"6 327 OFFCURVE",
"65 246 OFFCURVE",
"192 246 CURVE SMOOTH",
"217 246 LINE",
"217 226 LINE",
"144 226 LINE SMOOTH",
"17 226 OFFCURVE",
"5 184 OFFCURVE",
"5 117 CURVE SMOOTH",
"5 59 OFFCURVE",
"17 0 OFFCURVE",
"144 0 CURVE"
);
}
);
width = 509;
}
);
leftMetricsKey = O;
rightMetricsKey = O;
unicode = 0053;
},
{
glyphname = T;
lastChange = "2018-06-30 05:00:21 +0000";
layers = (
{
layerId = "DEFA3CF4-798D-4CAE-A768-8CFF46B77001";
paths = (
{
closed = 1;
nodes = (
"152 16 OFFCURVE",
"206 0 OFFCURVE",
"290 0 CURVE SMOOTH",
"374 0 OFFCURVE",
"428 16 OFFCURVE",
"428 118 CURVE SMOOTH",
"428 462 LINE SMOOTH",
"428 557 OFFCURVE",
"374 580 OFFCURVE",
"290 580 CURVE SMOOTH",
"206 580 OFFCURVE",
"152 557 OFFCURVE",
"152 462 CURVE SMOOTH",
"152 118 LINE SMOOTH"
);
},
{
closed = 1;
nodes = (
"16 580 OFFCURVE",
"0 530 OFFCURVE",
"0 452 CURVE SMOOTH",
"0 374 OFFCURVE",
"16 324 OFFCURVE",
"118 324 CURVE SMOOTH",
"462 324 LINE SMOOTH",
"557 324 OFFCURVE",
"580 374 OFFCURVE",
"580 452 CURVE SMOOTH",
"580 530 OFFCURVE",
"557 580 OFFCURVE",
"462 580 CURVE SMOOTH",
"118 580 LINE SMOOTH"
);
}
);
width = 580;
}
);
unicode = 0054;
},
{
glyphname = U;
lastChange = "2018-07-02 04:52:10 +0000";
layers = (
{
layerId = "DEFA3CF4-798D-4CAE-A768-8CFF46B77001";
paths = (
{
closed = 1;
nodes = (
"276 236 LINE",
"297 236 LINE",
"296 462 LINE SMOOTH",
"296 565 OFFCURVE",
"341 580 OFFCURVE",
"414 580 CURVE SMOOTH",
"506 580 OFFCURVE",
"552 565 OFFCURVE",
"552 462 CURVE",
"552 118 LINE SMOOTH",
"552 15 OFFCURVE",
"507 0 OFFCURVE",
"414 0 CURVE SMOOTH",
"362 0 OFFCURVE",
"316 15 OFFCURVE",
"316 118 CURVE",
"296 118 LINE",
"296 45 OFFCURVE",
"261 0 OFFCURVE",
"158 0 CURVE SMOOTH",
"46 0 OFFCURVE",
"10 45 OFFCURVE",
"10 128 CURVE SMOOTH",
"10 462 LINE",
"10 565 OFFCURVE",
"45 580 OFFCURVE",
"158 580 CURVE SMOOTH",
"230 580 OFFCURVE",
"276 565 OFFCURVE",
"276 462 CURVE SMOOTH"
);
}
);
width = 562;
}
);
leftMetricsKey = H;
rightMetricsKey = H;
unicode = 0055;
},
{
glyphname = V;
lastChange = "2018-07-02 05:18:35 +0000";
layers = (
{
layerId = "DEFA3CF4-798D-4CAE-A768-8CFF46B77001";
paths = (
{
closed = 1;
nodes = (
"541 433 LINE SMOOTH",
"541 551 OFFCURVE",
"487 570 OFFCURVE",
"404 570 CURVE SMOOTH",
"320 570 OFFCURVE",
"285 551 OFFCURVE",
"285 433 CURVE SMOOTH",
"285 287 LINE",
"265 287 LINE",
"265 433 LINE SMOOTH",
"265 551 OFFCURVE",
"237 570 OFFCURVE",
"147 570 CURVE SMOOTH",
"63 570 OFFCURVE",
"10 551 OFFCURVE",
"10 433 CURVE SMOOTH",
"10 287 LINE SMOOTH",
"10 103 OFFCURVE",
"87 -10 OFFCURVE",
"275 -10 CURVE SMOOTH",
"464 -10 OFFCURVE",
"541 103 OFFCURVE",
"541 287 CURVE SMOOTH"
);
}
);
width = 551;
}
);
leftMetricsKey = H;
rightMetricsKey = H;
unicode = 0056;
},
{
glyphname = W;
lastChange = "2018-07-02 05:04:48 +0000";
layers = (
{
layerId = "DEFA3CF4-798D-4CAE-A768-8CFF46B77001";
paths = (
{
closed = 1;
nodes = (
"10 87 OFFCURVE",
"56 -10 OFFCURVE",
"196 -10 CURVE SMOOTH",
"300 -10 OFFCURVE",
"374 44 OFFCURVE",
"374 156 CURVE",
"374 168 LINE",
"394 168 LINE",
"394 156 LINE",
"394 44 OFFCURVE",
"468 -10 OFFCURVE",
"572 -10 CURVE SMOOTH",
"712 -10 OFFCURVE",
"758 87 OFFCURVE",
"758 186 CURVE SMOOTH",
"758 462 LINE SMOOTH",
"758 564 OFFCURVE",
"712 580 OFFCURVE",
"640 580 CURVE SMOOTH",
"568 580 OFFCURVE",
"522 564 OFFCURVE",
"522 462 CURVE SMOOTH",
"522 266 LINE",
"502 266 LINE",
"502 462 LINE SMOOTH",
"502 564 OFFCURVE",
"462 580 OFFCURVE",
"384 580 CURVE SMOOTH",
"312 580 OFFCURVE",
"266 564 OFFCURVE",
"266 462 CURVE SMOOTH",
"266 266 LINE",
"246 266 LINE",
"246 462 LINE SMOOTH",
"246 564 OFFCURVE",
"206 580 OFFCURVE",
"128 580 CURVE SMOOTH",
"56 580 OFFCURVE",
"10 564 OFFCURVE",
"10 462 CURVE SMOOTH",
"10 186 LINE SMOOTH"
);
}
);
width = 768;
}
);
leftMetricsKey = H;
rightMetricsKey = H;
unicode = 0057;
},
{
glyphname = X;
lastChange = "2018-07-02 05:14:16 +0000";
layers = (
{
layerId = "DEFA3CF4-798D-4CAE-A768-8CFF46B77001";
paths = (
{
closed = 1;
nodes = (
"5 52 OFFCURVE",
"22 0 OFFCURVE",
"142 0 CURVE SMOOTH",
"285 0 OFFCURVE",
"304 52 OFFCURVE",
"304 137 CURVE SMOOTH",
"304 203 LINE",
"323 203 LINE",
"323 137 LINE SMOOTH",
"323 52 OFFCURVE",
"366 0 OFFCURVE",
"485 0 CURVE SMOOTH",
"605 0 OFFCURVE",
"622 52 OFFCURVE",
"622 148 CURVE SMOOTH",
"622 230 OFFCURVE",
"605 285 OFFCURVE",
"485 285 CURVE",
"485 305 LINE",
"605 305 OFFCURVE",
"622 360 OFFCURVE",
"622 443 CURVE SMOOTH",
"622 528 OFFCURVE",
"605 580 OFFCURVE",
"485 580 CURVE SMOOTH",
"366 580 OFFCURVE",
"323 528 OFFCURVE",
"323 443 CURVE SMOOTH",
"323 386 LINE",
"304 386 LINE",
"304 443 LINE SMOOTH",
"304 528 OFFCURVE",
"285 580 OFFCURVE",
"142 580 CURVE SMOOTH",
"22 580 OFFCURVE",
"5 528 OFFCURVE",
"5 443 CURVE SMOOTH",
"5 360 OFFCURVE",
"22 305 OFFCURVE",
"142 305 CURVE",
"142 285 LINE",
"22 285 OFFCURVE",
"5 230 OFFCURVE",
"5 148 CURVE SMOOTH"
);
}
);
width = 627;
}
);
leftMetricsKey = O;
rightMetricsKey = O;
unicode = 0058;
},
{
glyphname = a;
lastChange = "2018-06-29 07:42:44 +0000";
layers = (
{
layerId = "DEFA3CF4-798D-4CAE-A768-8CFF46B77001";
paths = (
{
closed = 1;
nodes = (
"220 0 OFFCURVE",
"266 15 OFFCURVE",
"266 118 CURVE",
"286 118 LINE",
"286 15 OFFCURVE",
"331 0 OFFCURVE",
"384 0 CURVE SMOOTH",
"456 0 OFFCURVE",
"502 15 OFFCURVE",
"502 118 CURVE SMOOTH",
"502 246 LINE SMOOTH",
"502 410 OFFCURVE",
"419 492 OFFCURVE",
"256 492 CURVE SMOOTH",
"128 492 LINE SMOOTH",
"55 492 OFFCURVE",
"10 477 OFFCURVE",
"10 374 CURVE SMOOTH",
"10 271 OFFCURVE",
"55 256 OFFCURVE",
"128 256 CURVE SMOOTH",
"256 256 LINE",
"256 236 LINE",
"128 236 LINE SMOOTH",
"55 236 OFFCURVE",
"10 221 OFFCURVE",
"10 118 CURVE SMOOTH",
"10 35 OFFCURVE",
"55 0 OFFCURVE",
"128 0 CURVE SMOOTH"
);
}
);
width = 512;
}
);
unicode = 0061;
},
{
glyphname = b;
lastChange = "2018-06-30 04:54:53 +0000";
layers = (
{
layerId = "DEFA3CF4-798D-4CAE-A768-8CFF46B77001";
paths = (
{
closed = 1;
nodes = (
"10 56 OFFCURVE",
"110 -10 OFFCURVE",
"266 -10 CURVE SMOOTH",
"422 -10 OFFCURVE",
"522 56 OFFCURVE",
"522 230 CURVE SMOOTH",
"522 404 OFFCURVE",
"422 469 OFFCURVE",
"266 469 CURVE",
"266 558 OFFCURVE",
"216 580 OFFCURVE",
"138 580 CURVE SMOOTH",
"60 580 OFFCURVE",
"10 558 OFFCURVE",
"10 469 CURVE SMOOTH",
"10 241 LINE SMOOTH",
"10 239 OFFCURVE",
"10 237 OFFCURVE",
"10 236 CURVE SMOOTH",
"10 230 LINE SMOOTH"
);
},
{
closed = 1;
nodes = (
"168 256 LINE",
"218 256 OFFCURVE",
"314 256 OFFCURVE",
"364 256 CURVE",
"364 236 LINE",
"314 236 OFFCURVE",
"218 236 OFFCURVE",
"168 236 CURVE"
);
}
);
width = 527;
}
);
rightMetricsKey = o;
unicode = 0062;
},
{
glyphname = c;
lastChange = "2018-06-29 06:47:09 +0000";
layers = (
{
layerId = "DEFA3CF4-798D-4CAE-A768-8CFF46B77001";
paths = (
{
closed = 1;
nodes = (
"349 0 LINE SMOOTH",
"451 0 OFFCURVE",
"467 46 OFFCURVE",
"467 118 CURVE SMOOTH",
"467 190 OFFCURVE",
"451 236 OFFCURVE",
"349 236 CURVE SMOOTH",
"251 236 LINE",
"251 256 LINE",
"349 256 LINE SMOOTH",
"451 256 OFFCURVE",
"467 296 OFFCURVE",
"467 374 CURVE SMOOTH",
"467 446 OFFCURVE",
"451 492 OFFCURVE",
"349 492 CURVE SMOOTH",
"251 492 LINE SMOOTH",
"102 492 OFFCURVE",
"5 426 OFFCURVE",
"5 246 CURVE SMOOTH",
"5 66 OFFCURVE",
"102 0 OFFCURVE",
"251 0 CURVE SMOOTH"
);
}
);
width = 477;
}
);
leftMetricsKey = o;
unicode = 0063;
},
{
glyphname = e;
lastChange = "2018-06-29 07:06:36 +0000";
layers = (
{
layerId = "DEFA3CF4-798D-4CAE-A768-8CFF46B77001";
paths = (
{
closed = 1;
nodes = (
"349 0 LINE SMOOTH",
"451 0 OFFCURVE",
"467 46 OFFCURVE",
"467 118 CURVE SMOOTH",
"467 190 OFFCURVE",
"451 236 OFFCURVE",
"349 236 CURVE SMOOTH",
"233 236 OFFCURVE",
"221 252 OFFCURVE",
"221 334 CURVE",
"241 334 LINE",
"241 275 OFFCURVE",
"241 256 OFFCURVE",
"364 256 CURVE SMOOTH",
"451 256 OFFCURVE",
"467 275 OFFCURVE",
"467 321 CURVE SMOOTH",
"467 436 OFFCURVE",
"400 492 OFFCURVE",
"251 492 CURVE SMOOTH",
"102 492 OFFCURVE",
"5 426 OFFCURVE",
"5 246 CURVE SMOOTH",
"5 66 OFFCURVE",
"102 0 OFFCURVE",
"251 0 CURVE SMOOTH"
);
}
);
width = 477;
}
);
leftMetricsKey = o;
rightMetricsKey = n;
unicode = 0065;
},
{
glyphname = f;
lastChange = "2018-07-02 05:11:34 +0000";
layers = (
{
layerId = "DEFA3CF4-798D-4CAE-A768-8CFF46B77001";
paths = (
{
closed = 1;
nodes = (
"10 355 OFFCURVE",
"10 176 OFFCURVE",
"10 118 CURVE",
"11 23 OFFCURVE",
"61 0 OFFCURVE",
"139 0 CURVE SMOOTH",
"217 0 OFFCURVE",
"267 23 OFFCURVE",
"267 118 CURVE SMOOTH",
"267 128 LINE",
"300 128 LINE SMOOTH",
"402 128 OFFCURVE",
"418 164 OFFCURVE",
"418 236 CURVE SMOOTH",
"418 294 OFFCURVE",
"402 344 OFFCURVE",
"300 344 CURVE SMOOTH",
"267 344 LINE",
"267 352 LINE",
"267 364 LINE",
"310 364 LINE SMOOTH",
"412 364 OFFCURVE",
"428 400 OFFCURVE",
"428 472 CURVE SMOOTH",
"428 524 OFFCURVE",
"412 580 OFFCURVE",
"310 580 CURVE SMOOTH",
"252 580 LINE SMOOTH",
"103 580 OFFCURVE",
"10 514 OFFCURVE",
"10 354 CURVE"
);
}
);
width = 428;
}
);
unicode = 0066;
},
{
glyphname = g;
lastChange = "2018-06-30 04:54:06 +0000";
layers = (
{
layerId = "DEFA3CF4-798D-4CAE-A768-8CFF46B77001";
paths = (
{
closed = 1;
nodes = (
"296 -80 LINE SMOOTH",
"442 -80 OFFCURVE",
"521 -38 OFFCURVE",
"531 93 CURVE",
"532 101 OFFCURVE",
"532 109 OFFCURVE",
"532 118 CURVE SMOOTH",
"532 372 LINE SMOOTH",
"532 475 OFFCURVE",
"487 490 OFFCURVE",
"434 490 CURVE SMOOTH",
"377 490 OFFCURVE",
"337 472 OFFCURVE",
"337 372 CURVE",
"317 372 LINE",
"317 418 OFFCURVE",
"319 502 OFFCURVE",
"186 502 CURVE SMOOTH",
"76 502 OFFCURVE",
"10 445 OFFCURVE",
"10 313 CURVE SMOOTH",
"10 152 OFFCURVE",
"96 133 OFFCURVE",
"226 133 CURVE SMOOTH",
"296 133 LINE",
"296 115 LINE",
"173 115 LINE SMOOTH",
"93 115 OFFCURVE",
"50 119 OFFCURVE",
"50 22 CURVE SMOOTH",
"50 -80 OFFCURVE",
"93 -80 OFFCURVE",
"173 -80 CURVE SMOOTH"
);
},
{
closed = 1;
nodes = (
"178 256 LINE",
"374 256 LINE",
"374 236 LINE",
"178 236 LINE"
);
}
);
width = 542;
}
);
unicode = 0067;
},
{
glyphname = h;
lastChange = "2018-06-30 04:49:03 +0000";
layers = (
{
layerId = "DEFA3CF4-798D-4CAE-A768-8CFF46B77001";
paths = (
{
closed = 1;
nodes = (
"10 16 OFFCURVE",
"60 0 OFFCURVE",
"138 0 CURVE SMOOTH",
"140 0 OFFCURVE",
"141 0 OFFCURVE",
"143 0 CURVE SMOOTH",
"148 0 LINE SMOOTH",
"221 0 OFFCURVE",
"267 15 OFFCURVE",
"266 118 CURVE",
"266 254 LINE",
"286 254 LINE",
"286 118 LINE SMOOTH",
"286 15 OFFCURVE",
"332 0 OFFCURVE",
"404 0 CURVE SMOOTH",
"497 0 OFFCURVE",
"542 15 OFFCURVE",
"542 118 CURVE SMOOTH",
"542 362 LINE SMOOTH",
"542 445 OFFCURVE",
"496 490 OFFCURVE",
"404 490 CURVE SMOOTH",
"321 490 OFFCURVE",
"286 445 OFFCURVE",
"286 372 CURVE",
"266 372 LINE",
"266 462 LINE SMOOTH",
"266 557 OFFCURVE",
"216 580 OFFCURVE",
"138 580 CURVE SMOOTH",
"60 580 OFFCURVE",
"10 557 OFFCURVE",
"10 462 CURVE SMOOTH",
"10 118 LINE SMOOTH"
);
}
);
width = 552;
}
);
unicode = 0068;
},
{
glyphname = i;
lastChange = "2018-06-29 06:40:57 +0000";
layers = (
{
layerId = "DEFA3CF4-798D-4CAE-A768-8CFF46B77001";
paths = (
{
closed = 1;
nodes = (
"10 16 OFFCURVE",
"60 0 OFFCURVE",
"138 0 CURVE SMOOTH",
"216 0 OFFCURVE",
"266 16 OFFCURVE",
"266 118 CURVE SMOOTH",
"266 342 LINE SMOOTH",
"266 444 OFFCURVE",
"216 460 OFFCURVE",
"138 460 CURVE SMOOTH",
"60 460 OFFCURVE",
"10 444 OFFCURVE",
"10 342 CURVE SMOOTH",
"10 118 LINE SMOOTH"
);
},
{
closed = 1;
nodes = (
"10 502 OFFCURVE",
"60 480 OFFCURVE",
"138 480 CURVE SMOOTH",
"216 480 OFFCURVE",
"266 502 OFFCURVE",
"266 561 CURVE SMOOTH",
"266 618 OFFCURVE",
"216 640 OFFCURVE",
"138 640 CURVE SMOOTH",
"60 640 OFFCURVE",
"10 618 OFFCURVE",
"10 561 CURVE SMOOTH"
);
}
);
width = 276;
}
);
unicode = 0069;
},
{
glyphname = j;
lastChange = "2018-07-02 05:00:16 +0000";
layers = (
{
layerId = "DEFA3CF4-798D-4CAE-A768-8CFF46B77001";
paths = (
{
closed = 1;
nodes = (
"355 342 LINE",
"354 437 OFFCURVE",
"304 460 OFFCURVE",
"226 460 CURVE SMOOTH",
"148 460 OFFCURVE",
"98 437 OFFCURVE",
"98 342 CURVE SMOOTH",
"98 136 LINE",
"-4 136 OFFCURVE",
"-20 100 OFFCURVE",
"-20 28 CURVE SMOOTH",
"-20 -44 OFFCURVE",
"-4 -80 OFFCURVE",
"98 -80 CURVE SMOOTH",
"113 -80 LINE SMOOTH",
"262 -80 OFFCURVE",
"355 -14 OFFCURVE",
"355 166 CURVE SMOOTH"
);
},
{
closed = 1;
nodes = (
"98 502 OFFCURVE",
"148 480 OFFCURVE",
"226 480 CURVE SMOOTH",
"304 480 OFFCURVE",
"354 502 OFFCURVE",
"354 561 CURVE SMOOTH",
"354 618 OFFCURVE",
"304 640 OFFCURVE",
"226 640 CURVE SMOOTH",
"148 640 OFFCURVE",
"98 618 OFFCURVE",
"98 561 CURVE SMOOTH"
);
}
);
width = 365;
}
);
unicode = 006A;
},
{
glyphname = k;
lastChange = "2018-06-30 04:55:09 +0000";
layers = (
{
layerId = "DEFA3CF4-798D-4CAE-A768-8CFF46B77001";
paths = (
{
closed = 1;
nodes = (
"266 118 LINE SMOOTH",
"266 45 OFFCURVE",
"301 0 OFFCURVE",
"394 0 CURVE SMOOTH",
"507 0 OFFCURVE",
"522 45 OFFCURVE",
"522 128 CURVE SMOOTH",
"522 198 OFFCURVE",
"507 244 OFFCURVE",
"404 244 CURVE",
"404 264 LINE",
"507 264 OFFCURVE",
"522 310 OFFCURVE",
"522 382 CURVE SMOOTH",
"522 455 OFFCURVE",
"507 500 OFFCURVE",
"394 500 CURVE SMOOTH",
"301 500 OFFCURVE",
"266 455 OFFCURVE",
"266 382 CURVE SMOOTH",
"266 333 LINE",
"246 333 LINE",
"246 462 LINE SMOOTH",
"246 535 OFFCURVE",
"231 580 OFFCURVE",
"128 580 CURVE SMOOTH",
"25 580 OFFCURVE",
"10 535 OFFCURVE",
"10 462 CURVE SMOOTH",
"10 118 LINE SMOOTH",
"10 45 OFFCURVE",
"25 0 OFFCURVE",
"128 0 CURVE",
"224 0 OFFCURVE",
"246 45 OFFCURVE",
"246 118 CURVE SMOOTH",
"246 156 OFFCURVE",
"246 165 OFFCURVE",
"246 175 CURVE",
"266 175 LINE"
);
}
);
width = 527;
}
);
rightMetricsKey = o;
unicode = 006B;
},
{
glyphname = l;
lastChange = "2018-06-30 04:54:43 +0000";
layers = (
{
layerId = "DEFA3CF4-798D-4CAE-A768-8CFF46B77001";
paths = (
{
closed = 1;
nodes = (
"10 16 OFFCURVE",
"60 0 OFFCURVE",
"138 0 CURVE SMOOTH",
"216 0 OFFCURVE",
"266 16 OFFCURVE",
"266 118 CURVE SMOOTH",
"266 462 LINE SMOOTH",
"266 557 OFFCURVE",
"216 580 OFFCURVE",
"138 580 CURVE SMOOTH",
"60 580 OFFCURVE",
"10 557 OFFCURVE",
"10 462 CURVE SMOOTH",
"10 118 LINE SMOOTH"
);
}
);
width = 276;
}
);
unicode = 006C;
},
{
glyphname = m;
lastChange = "2018-06-29 07:00:29 +0000";
layers = (
{
layerId = "DEFA3CF4-798D-4CAE-A768-8CFF46B77001";
paths = (
{
closed = 1;
nodes = (
"10 372 LINE SMOOTH",
"10 475 OFFCURVE",
"55 490 OFFCURVE",
"128 490 CURVE SMOOTH",
"200 490 OFFCURVE",
"246 475 OFFCURVE",
"246 372 CURVE",
"266 372 LINE",
"266 434 OFFCURVE",
"310 490 OFFCURVE",
"381 490 CURVE SMOOTH",
"473 490 OFFCURVE",
"519 456 OFFCURVE",
"519 372 CURVE",
"539 372 LINE",
"539 435 OFFCURVE",
"584 490 OFFCURVE",
"667 490 CURVE SMOOTH",
"749 490 OFFCURVE",
"795 445 OFFCURVE",
"795 352 CURVE SMOOTH",
"795 118 LINE SMOOTH",
"795 15 OFFCURVE",
"750 0 OFFCURVE",
"657 0 CURVE SMOOTH",
"585 0 OFFCURVE",
"539 15 OFFCURVE",
"539 118 CURVE SMOOTH",
"539 254 LINE",
"518 254 LINE",
"519 118 LINE SMOOTH",
"520 15 OFFCURVE",
"474 0 OFFCURVE",
"391 0 CURVE SMOOTH",
"311 0 OFFCURVE",
"266 16 OFFCURVE",
"266 118 CURVE SMOOTH",
"266 254 LINE",
"245 254 LINE",
"246 118 LINE SMOOTH",
"247 15 OFFCURVE",
"201 0 OFFCURVE",
"128 0 CURVE SMOOTH",
"56 0 OFFCURVE",
"10 15 OFFCURVE",
"10 118 CURVE SMOOTH"
);
}
);
width = 805;
}
);
unicode = 006D;
},
{
glyphname = n;
lastChange = "2018-06-29 15:40:48 +0000";
layers = (
{
layerId = "DEFA3CF4-798D-4CAE-A768-8CFF46B77001";
paths = (
{
closed = 1;
nodes = (
"266 254 LINE",
"245 254 LINE",
"246 118 LINE SMOOTH",
"247 15 OFFCURVE",
"201 0 OFFCURVE",
"128 0 CURVE SMOOTH",
"56 0 OFFCURVE",
"10 15 OFFCURVE",
"10 118 CURVE",
"10 372 LINE SMOOTH",
"10 475 OFFCURVE",
"55 490 OFFCURVE",
"128 490 CURVE SMOOTH",
"180 490 OFFCURVE",
"226 475 OFFCURVE",
"226 372 CURVE",
"246 372 LINE",
"246 445 OFFCURVE",
"281 490 OFFCURVE",
"384 490 CURVE SMOOTH",
"476 490 OFFCURVE",
"522 445 OFFCURVE",
"522 362 CURVE SMOOTH",
"522 118 LINE",
"522 15 OFFCURVE",
"477 0 OFFCURVE",
"384 0 CURVE SMOOTH",
"312 0 OFFCURVE",
"266 15 OFFCURVE",
"266 118 CURVE SMOOTH"
);
}
);
width = 532;
}
);
unicode = 006E;
},
{
glyphname = o;
lastChange = "2018-06-29 06:40:13 +0000";
layers = (
{
layerId = "DEFA3CF4-798D-4CAE-A768-8CFF46B77001";
paths = (
{
closed = 1;
nodes = (
"105 502 OFFCURVE",
"5 432 OFFCURVE",
"5 246 CURVE SMOOTH",
"5 60 OFFCURVE",
"105 -10 OFFCURVE",
"261 -10 CURVE SMOOTH",
"417 -10 OFFCURVE",
"517 60 OFFCURVE",
"517 246 CURVE SMOOTH",
"517 432 OFFCURVE",
"417 502 OFFCURVE",
"261 502 CURVE SMOOTH"
);
},
{
closed = 1;
nodes = (
"163 256 LINE",
"213 256 OFFCURVE",
"309 256 OFFCURVE",
"359 256 CURVE",
"359 236 LINE",
"309 236 OFFCURVE",
"213 236 OFFCURVE",
"163 236 CURVE"
);
}
);
width = 522;
}
);
unicode = 006F;
},
{
glyphname = p;
lastChange = "2018-06-30 04:48:50 +0000";
layers = (
{
layerId = "DEFA3CF4-798D-4CAE-A768-8CFF46B77001";
paths = (
{
closed = 1;
nodes = (
"10 256 LINE SMOOTH",
"10 255 OFFCURVE",
"10 253 OFFCURVE",
"10 251 CURVE SMOOTH",
"10 23 LINE SMOOTH",
"10 -66 OFFCURVE",
"60 -88 OFFCURVE",
"138 -88 CURVE SMOOTH",
"216 -88 OFFCURVE",
"266 -66 OFFCURVE",
"266 23 CURVE",
"422 23 OFFCURVE",
"522 88 OFFCURVE",
"522 262 CURVE SMOOTH",
"522 436 OFFCURVE",
"422 502 OFFCURVE",
"266 502 CURVE SMOOTH",
"110 502 OFFCURVE",
"10 436 OFFCURVE",
"10 262 CURVE SMOOTH"
);
},
{
closed = 1;
nodes = (
"218 256 OFFCURVE",
"314 256 OFFCURVE",
"364 256 CURVE",
"364 236 LINE",
"314 236 OFFCURVE",
"218 236 OFFCURVE",
"168 236 CURVE",
"168 256 LINE"
);
}
);
width = 527;
}
);
unicode = 0070;
},
{
glyphname = r;
lastChange = "2018-06-29 07:23:47 +0000";
layers = (
{
layerId = "DEFA3CF4-798D-4CAE-A768-8CFF46B77001";
paths = (
{
closed = 1;
nodes = (
"272 492 OFFCURVE",
"226 477 OFFCURVE",
"226 374 CURVE",
"206 374 LINE",
"206 477 OFFCURVE",
"161 492 OFFCURVE",
"108 492 CURVE SMOOTH",
"56 492 OFFCURVE",
"10 469 OFFCURVE",
"10 374 CURVE SMOOTH",
"10 136 LINE SMOOTH",
"10 40 OFFCURVE",
"27 0 OFFCURVE",
"128 0 CURVE SMOOTH",
"202 0 OFFCURVE",
"256 20 OFFCURVE",
"256 104 CURVE SMOOTH",
"256 176 OFFCURVE",
"259 216 OFFCURVE",
"304 216 CURVE SMOOTH",
"347 216 OFFCURVE",
"392 231 OFFCURVE",
"392 374 CURVE SMOOTH",
"392 477 OFFCURVE",
"347 492 OFFCURVE",
"304 492 CURVE SMOOTH"
);
}
);
width = 397;
}
);
rightMetricsKey = o;
unicode = 0072;
},
{
glyphname = s;
lastChange = "2018-06-29 07:42:28 +0000";
layers = (
{
layerId = "DEFA3CF4-798D-4CAE-A768-8CFF46B77001";
paths = (
{
closed = 1;
nodes = (
"313 -1 LINE",
"422 -1 OFFCURVE",
"471 49 OFFCURVE",
"471 137 CURVE SMOOTH",
"471 205 OFFCURVE",
"421 265 OFFCURVE",
"313 265 CURVE SMOOTH",
"292 265 LINE",
"292 285 LINE",
"354 285 LINE SMOOTH",
"462 285 OFFCURVE",
"472 336 OFFCURVE",
"472 384 CURVE SMOOTH",
"472 442 OFFCURVE",
"462 492 OFFCURVE",
"354 492 CURVE",
"164 492 LINE",
"56 492 OFFCURVE",
"6 442 OFFCURVE",
"6 354 CURVE SMOOTH",
"6 286 OFFCURVE",
"56 226 OFFCURVE",
"164 226 CURVE SMOOTH",
"185 226 LINE",
"185 206 LINE",
"123 206 LINE SMOOTH",
"15 206 OFFCURVE",
"5 156 OFFCURVE",
"5 108 CURVE SMOOTH",
"5 50 OFFCURVE",
"15 0 OFFCURVE",
"123 0 CURVE"
);
}
);
width = 477;
}
);
leftMetricsKey = o;
rightMetricsKey = o;
unicode = 0073;
},
{
glyphname = t;
lastChange = "2018-07-02 04:55:31 +0000";
layers = (
{
layerId = "DEFA3CF4-798D-4CAE-A768-8CFF46B77001";
paths = (
{
closed = 1;
nodes = (
"10 66 OFFCURVE",
"83 0 OFFCURVE",
"232 0 CURVE SMOOTH",
"330 0 LINE SMOOTH",
"432 0 OFFCURVE",
"448 46 OFFCURVE",
"448 118 CURVE SMOOTH",
"448 190 OFFCURVE",
"432 236 OFFCURVE",
"330 236 CURVE SMOOTH",
"247 236 LINE",
"247 248 LINE",
"247 256 LINE",
"330 256 LINE SMOOTH",
"432 256 OFFCURVE",
"448 296 OFFCURVE",
"448 374 CURVE SMOOTH",
"448 490 OFFCURVE",
"421 501 OFFCURVE",
"247 488 CURVE",
"247 502 LINE SMOOTH",
"247 547 OFFCURVE",
"207 576 OFFCURVE",
"129 576 CURVE SMOOTH",
"51 576 OFFCURVE",
"11 547 OFFCURVE",
"10 482 CURVE",
"10 424 OFFCURVE",
"10 245 OFFCURVE",
"10 246 CURVE"
);
}
);
width = 458;
}
);
unicode = 0074;
},
{
glyphname = v;
lastChange = "2018-06-29 07:10:05 +0000";
layers = (
{
layerId = "DEFA3CF4-798D-4CAE-A768-8CFF46B77001";
paths = (
{
closed = 1;
nodes = (
"502 372 LINE SMOOTH",
"502 474 OFFCURVE",
"456 490 OFFCURVE",
"384 490 CURVE SMOOTH",
"312 490 OFFCURVE",
"266 474 OFFCURVE",
"266 372 CURVE SMOOTH",
"266 246 LINE",
"246 246 LINE",
"246 372 LINE SMOOTH",
"246 474 OFFCURVE",
"206 490 OFFCURVE",
"128 490 CURVE SMOOTH",
"56 490 OFFCURVE",
"10 474 OFFCURVE",
"10 372 CURVE SMOOTH",
"10 246 LINE SMOOTH",
"10 87 OFFCURVE",
"76 -10 OFFCURVE",
"256 -10 CURVE SMOOTH",
"436 -10 OFFCURVE",
"502 87 OFFCURVE",
"502 246 CURVE SMOOTH"
);
}
);
width = 512;
}
);
unicode = 0076;
},
{
glyphname = w;
lastChange = "2018-06-30 04:26:36 +0000";
layers = (
{
layerId = "DEFA3CF4-798D-4CAE-A768-8CFF46B77001";
paths = (
{
closed = 1;
nodes = (
"10 87 OFFCURVE",
"56 -10 OFFCURVE",
"196 -10 CURVE SMOOTH",
"300 -10 OFFCURVE",
"374 44 OFFCURVE",
"374 156 CURVE",
"374 168 LINE",
"394 168 LINE",
"394 156 LINE",
"394 44 OFFCURVE",
"468 -10 OFFCURVE",
"572 -10 CURVE SMOOTH",
"712 -10 OFFCURVE",
"758 87 OFFCURVE",
"758 186 CURVE SMOOTH",
"758 372 LINE SMOOTH",
"758 474 OFFCURVE",
"712 490 OFFCURVE",
"640 490 CURVE SMOOTH",
"568 490 OFFCURVE",
"522 474 OFFCURVE",
"522 372 CURVE SMOOTH",
"522 266 LINE",
"502 266 LINE",
"502 372 LINE SMOOTH",
"502 474 OFFCURVE",
"462 490 OFFCURVE",
"384 490 CURVE SMOOTH",
"312 490 OFFCURVE",
"266 474 OFFCURVE",
"266 372 CURVE SMOOTH",
"266 266 LINE",
"246 266 LINE",
"246 372 LINE SMOOTH",
"246 474 OFFCURVE",
"206 490 OFFCURVE",
"128 490 CURVE SMOOTH",
"56 490 OFFCURVE",
"10 474 OFFCURVE",
"10 372 CURVE SMOOTH",
"10 186 LINE SMOOTH"
);
}
);
width = 768;
}
);
unicode = 0077;
},
{
glyphname = x;
lastChange = "2018-06-30 04:33:09 +0000";
layers = (
{
layerId = "DEFA3CF4-798D-4CAE-A768-8CFF46B77001";
paths = (
{
closed = 1;
nodes = (
"10 45 OFFCURVE",
"25 0 OFFCURVE",
"128 0 CURVE SMOOTH",
"251 0 OFFCURVE",
"266 45 OFFCURVE",
"266 118 CURVE SMOOTH",
"266 175 LINE",
"286 175 LINE",
"286 118 LINE SMOOTH",
"286 45 OFFCURVE",
"321 0 OFFCURVE",
"424 0 CURVE SMOOTH",
"527 0 OFFCURVE",
"542 45 OFFCURVE",
"542 128 CURVE SMOOTH",
"542 198 OFFCURVE",
"527 244 OFFCURVE",
"424 244 CURVE",
"424 264 LINE",
"527 264 OFFCURVE",
"542 310 OFFCURVE",
"542 382 CURVE SMOOTH",
"542 455 OFFCURVE",
"527 500 OFFCURVE",
"424 500 CURVE SMOOTH",
"321 500 OFFCURVE",
"286 455 OFFCURVE",
"286 382 CURVE SMOOTH",
"286 333 LINE",
"266 333 LINE",
"266 382 LINE SMOOTH",
"266 455 OFFCURVE",
"251 500 OFFCURVE",
"128 500 CURVE SMOOTH",
"25 500 OFFCURVE",
"10 455 OFFCURVE",
"10 382 CURVE SMOOTH",
"10 310 OFFCURVE",
"25 264 OFFCURVE",
"128 264 CURVE",
"128 244 LINE",
"25 244 OFFCURVE",
"10 198 OFFCURVE",
"10 128 CURVE SMOOTH"
);
}
);
width = 552;
}
);
unicode = 0078;
},
{
glyphname = y;
lastChange = "2018-06-30 05:03:14 +0000";
layers = (
{
layerId = "DEFA3CF4-798D-4CAE-A768-8CFF46B77001";
paths = (
{
closed = 1;
nodes = (
"55 492 OFFCURVE",
"10 477 OFFCURVE",
"10 324 CURVE SMOOTH",
"10 191 OFFCURVE",
"125 176 OFFCURVE",
"198 176 CURVE SMOOTH",
"276 176 LINE",
"276 156 LINE",
"148 156 LINE SMOOTH",
"55 156 OFFCURVE",
"10 141 OFFCURVE",
"10 38 CURVE SMOOTH",
"10 -65 OFFCURVE",
"55 -80 OFFCURVE",
"148 -80 CURVE SMOOTH",
"276 -80 LINE SMOOTH",
"439 -80 OFFCURVE",
"522 2 OFFCURVE",
"522 166 CURVE SMOOTH",
"522 374 LINE SMOOTH",
"522 469 OFFCURVE",
"476 492 OFFCURVE",
"404 492 CURVE SMOOTH",
"321 492 OFFCURVE",
"286 477 OFFCURVE",
"286 304 CURVE",
"266 304 LINE",
"266 477 OFFCURVE",
"240 492 OFFCURVE",
"148 492 CURVE SMOOTH"
);
}
);
width = 532;
}
);
unicode = 0079;
},
{
glyphname = o.001;
lastChange = "2018-06-29 06:23:11 +0000";
layers = (
{
layerId = "DEFA3CF4-798D-4CAE-A768-8CFF46B77001";
paths = (
{
closed = 1;
nodes = (
"120 492 OFFCURVE",
"10 382 OFFCURVE",
"10 246 CURVE SMOOTH",
"10 110 OFFCURVE",
"120 0 OFFCURVE",
"256 0 CURVE SMOOTH",
"392 0 OFFCURVE",
"502 110 OFFCURVE",
"502 246 CURVE SMOOTH",
"502 382 OFFCURVE",
"392 492 OFFCURVE",
"256 492 CURVE SMOOTH"
);
},
{
closed = 1;
nodes = (
"246 118 LINE",
"246 183 OFFCURVE",
"193 236 OFFCURVE",
"128 236 CURVE",
"128 256 LINE",
"193 256 OFFCURVE",
"246 309 OFFCURVE",
"246 374 CURVE",
"266 374 LINE",
"266 309 OFFCURVE",
"319 256 OFFCURVE",
"384 256 CURVE",
"384 236 LINE",
"319 236 OFFCURVE",
"266 183 OFFCURVE",
"266 118 CURVE"
);
}
);
width = 512;
}
);
},
{
glyphname = period;
lastChange = "2018-06-29 07:23:26 +0000";
layers = (
{
layerId = "DEFA3CF4-798D-4CAE-A768-8CFF46B77001";
paths = (
{
closed = 1;
nodes = (
"10 16 OFFCURVE",
"60 0 OFFCURVE",
"138 0 CURVE SMOOTH",
"216 0 OFFCURVE",
"266 16 OFFCURVE",
"266 118 CURVE SMOOTH",
"266 220 OFFCURVE",
"216 236 OFFCURVE",
"138 236 CURVE SMOOTH",
"60 236 OFFCURVE",
"10 220 OFFCURVE",
"10 118 CURVE SMOOTH"
);
}
);
width = 276;
}
);
unicode = 002E;
},
